<svg xmlns="http://www.w3.org/2000/svg" xmlns:xlink="http://www.w3.org/1999/xlink" version="1.1" x="0px" y="0px" viewBox="0 0 512 640" enable-background="new 0 0 512 512" xml:space="preserve"><g><g><path d="M103.6,357.6H52.8V154.4h50.8c14,0,25.4-11.4,25.4-25.4l0,0c0-14-11.4-25.4-25.4-25.4H27.4C13.4,103.6,2,115,2,129v254    c0,14,11.4,25.4,25.4,25.4h76.2c14,0,25.4-11.4,25.4-25.4l0,0C129,369,117.6,357.6,103.6,357.6z"/><path d="M484.6,103.6H256c-14,0-25.4,11.4-25.4,25.4l0,0c0,14,11.4,25.4,25.4,25.4h203.2v203.2H256c-14,0-25.4,11.4-25.4,25.4l0,0    c0,14,11.4,25.4,25.4,25.4h228.6c14,0,25.4-11.4,25.4-25.4V129C510,115,498.6,103.6,484.6,103.6z"/></g><path d="M256,27.4L256,27.4c0-14-11.4-25.4-25.4-25.4H129c-14,0-25.4,11.4-25.4,25.4l0,0c0,14,11.4,25.4,25.4,25.4h25.4v406.4H129   c-14,0-25.4,11.4-25.4,25.4l0,0c0,14,11.4,25.4,25.4,25.4h101.6c14,0,25.4-11.4,25.4-25.4l0,0c0-14-11.4-25.4-25.4-25.4h-25.4V52.8   h25.4C244.6,52.8,256,41.4,256,27.4z"/></g><text x="0" y="527" fill="#000000" font-size="5px" font-weight="bold" font-family="'Helvetica Neue', Helvetica, Arial-Unicode, Arial, Sans-serif">Created by Icon Fair</text><text x="0" y="532" fill="#000000" font-size="5px" font-weight="bold" font-family="'Helvetica Neue', Helvetica, Arial-Unicode, Arial, Sans-serif">from the Noun Project</text></svg>